<?xml version="1.0" encoding="UTF-8"?>
<svg id="Layer_1" xmlns="http://www.w3.org/2000/svg" version="1.1" viewBox="0 0 441.7 297">
  <!-- Generator: Adobe Illustrator 29.4.0, SVG Export Plug-In . SVG Version: 2.1.0 Build 152)  -->
  <defs>
    <style>
      .st0 {
        fill: #132109;
      }

      .st1 {
        fill: #7ef45d;
      }
    </style>
  </defs>
  <g>
    <path class="st1" d="M200.4,87.2V13.7c-36.4,16-61.8,52.3-61.8,94.6v46.7l61.8-61.8v-6Z"/>
    <path class="st1" d="M214.9,107.6l-61.8,61.8h46.7c42.3,0,78.6-25.4,94.6-61.8h-79.5Z"/>
    <path class="st1" d="M220.9,5v82.2h0s80.1,0,80.1,0h2.2V5h-82.2Z"/>
  </g>
  <g>
    <polygon class="st0" points="5 216.9 24.1 216.9 24.1 275.9 38.9 275.9 38.9 216.9 58 216.9 58 202.9 5 202.9 5 216.9"/>
    <path class="st0" d="M92.4,220.2c-9,0-14.9,5.3-16.4,17.5h-.4l.3-12.9v-3h-14.6v54.1h14.6v-29.3c0-9.3,2.8-13,9.3-13s7.6,3.2,7.6,8.3v3.4h14.6v-9.1c0-10.6-5.2-16-15-16Z"/>
    <path class="st0" d="M137.4,220.1h-1.1c-14.7,0-24.6,8.9-24.6,26.8v3.9c0,17.5,9.6,26.6,24.6,26.6h1.7c12.6,0,21-6.8,23.6-17.9h-13.3c-1.2,3.6-4.6,5.8-10.9,5.8s-11.5-3.6-11.5-11.5v-.8h36.1v-6.5c0-17.3-9.9-26.4-24.6-26.4ZM125.9,243.4c.3-7.6,4-11.2,10.8-11.2s10.7,3.5,11.1,11.2h-21.9Z"/>
    <path class="st0" d="M192,220.1h-1.1c-14.7,0-24.6,8.9-24.6,26.8v3.9c0,17.5,9.6,26.6,24.6,26.6h1.7c12.6,0,21-6.8,23.6-17.9h-13.3c-1.2,3.6-4.6,5.8-10.9,5.8s-11.5-3.6-11.5-11.5v-.8h36.1v-6.5c0-17.3-9.9-26.4-24.6-26.4ZM180.5,243.4c.3-7.6,4-11.2,10.8-11.2s10.7,3.5,11.1,11.2h-21.9Z"/>
    <polygon class="st0" points="303 255.8 302.4 255.8 290.8 221.8 275.2 221.8 295.2 276.6 289.4 292 303.9 292 329.1 221.8 314.6 221.8 303 255.8"/>
    <path class="st0" d="M361.5,253.6v-19.2h19.7v-12.6h-19.7v-14.9h-14.6v14.9h-13.5v12.6h13.5v18.4c0,15.8,6.7,23.8,27.9,23.8s4.5,0,7.3-.2v-13c-2.7.2-4.9.2-7.4.2-9.3,0-13.2-2.4-13.2-10Z"/>
    <path class="st0" d="M436.7,253v-6.5c0-17.3-9.9-26.4-24.6-26.4h-1.1c-14.7,0-24.6,8.9-24.6,26.8v3.9c0,17.5,9.6,26.6,24.6,26.6h1.7c12.6,0,21-6.8,23.6-17.9h-13.3c-1.2,3.6-4.6,5.8-10.9,5.8s-11.5-3.6-11.5-11.5v-.8h36.1ZM411.5,232.2c6.8,0,10.7,3.5,11.1,11.2h-21.9c.3-7.6,4-11.2,10.8-11.2Z"/>
    <path class="st0" d="M255.4,239v-.9c9.8-1.1,15.5-5.8,15.5-16.1s-7.8-19.1-26.6-19.1h-22.3v29.2h0v13.3h0v30.5h23.3c18.8,0,27.2-6.3,27.2-19.6s-4.5-16.1-17-17.3ZM236.3,216.3h7.3c9.3,0,12.7,1.9,12.7,7.9s-3.3,7.8-12.7,7.8h-7.3v-15.8ZM244,262.5h-7.7v-17.1h7.7c10,0,13.5,2.1,13.5,8.5s-3.5,8.6-13.5,8.6Z"/>
  </g>
</svg>